<svg width="67" height="32" viewBox="0 0 67 32" fill="none" xmlns="http://www.w3.org/2000/svg">
<g clip-path="url(#clip0_4829_179)">
<path d="M18.536 26H14.196V10.6H8.064L7.952 12.868C7.76533 17.1613 7.28 20.344 6.496 22.416C5.992 23.7787 5.30133 24.7307 4.424 25.272C3.56533 25.8133 2.38933 26.084 0.896 26.084C0.504 26.084 0.130667 26.056 -0.224 26V21.968C0.112 22.0053 0.345333 22.024 0.476 22.024C1.46533 22.024 2.184 21.5667 2.632 20.652C2.912 20.092 3.164 19.0187 3.388 17.432C3.612 15.8267 3.752 12.8867 3.808 8.612L3.836 6.4H18.536V26ZM20.9038 18.692C20.9038 16.452 21.6598 14.632 23.1718 13.232C24.6838 11.832 26.5504 11.132 28.7718 11.132C31.0304 11.132 32.9158 11.8413 34.4278 13.26C35.9398 14.66 36.6958 16.4707 36.6958 18.692C36.6958 20.932 35.9304 22.752 34.3998 24.152C32.8691 25.5333 30.9931 26.224 28.7718 26.224C26.5504 26.224 24.6838 25.5147 23.1718 24.096C21.6598 22.6773 20.9038 20.876 20.9038 18.692ZM25.1038 18.692C25.1038 19.756 25.4491 20.652 26.1398 21.38C26.8491 22.0893 27.7264 22.444 28.7718 22.444C29.8918 22.444 30.7878 22.0987 31.4598 21.408C32.1504 20.7173 32.4958 19.812 32.4958 18.692C32.4958 17.5907 32.1504 16.6853 31.4598 15.976C30.7691 15.2667 29.8731 14.912 28.7718 14.912C27.6704 14.912 26.7838 15.2667 26.1118 15.976C25.4398 16.6853 25.1038 17.5907 25.1038 18.692ZM42.5622 26H38.5022V11.44H49.8702V15.22H42.5622V26ZM50.0522 18.692C50.0522 16.452 50.8082 14.632 52.3202 13.232C53.8322 11.832 55.6989 11.132 57.9202 11.132C60.1789 11.132 62.0642 11.8413 63.5762 13.26C65.0882 14.66 65.8442 16.4707 65.8442 18.692C65.8442 20.932 65.0789 22.752 63.5482 24.152C62.0175 25.5333 60.1415 26.224 57.9202 26.224C55.6989 26.224 53.8322 25.5147 52.3202 24.096C50.8082 22.6773 50.0522 20.876 50.0522 18.692ZM54.2522 18.692C54.2522 19.756 54.5975 20.652 55.2882 21.38C55.9975 22.0893 56.8749 22.444 57.9202 22.444C59.0402 22.444 59.9362 22.0987 60.6082 21.408C61.2989 20.7173 61.6442 19.812 61.6442 18.692C61.6442 17.5907 61.2989 16.6853 60.6082 15.976C59.9175 15.2667 59.0215 14.912 57.9202 14.912C56.8189 14.912 55.9322 15.2667 55.2602 15.976C54.5882 16.6853 54.2522 17.5907 54.2522 18.692Z" fill="black"/>
</g>
<defs>
<clipPath id="clip0_4829_179">
<rect width="67" height="32" fill="white"/>
</clipPath>
</defs>
</svg>
